<svg xmlns="http://www.w3.org/2000/svg" xmlns:xlink="http://www.w3.org/1999/xlink" width="388" height="109" viewBox="0 0 388 109"><defs><clipPath id="b"><rect width="388" height="109"/></clipPath></defs><g id="a" clip-path="url(#b)"><path d="M1.68-1.12h8.88V-55.84H1.68v-1.12H18.8l27.04,43.6H46V-55.84H37.12v-1.12H56.08v1.12H47.2V1.12H45.6L11.92-52.56h-.16V-1.12h8.88V0H1.68ZM82-19.6h-.16q-.16,1.04-2.64,2.08l-6,2.4a8.747,8.747,0,0,0-3.92,2.92,7.776,7.776,0,0,0-1.36,4.68,13.45,13.45,0,0,0,.24,2.48,6.356,6.356,0,0,0,.88,2.28,4.884,4.884,0,0,0,1.8,1.64,6.179,6.179,0,0,0,3,.64A7.447,7.447,0,0,0,78.12-1.6,7.33,7.33,0,0,0,80.6-4.4a11.818,11.818,0,0,0,1.12-3.64A25.37,25.37,0,0,0,82-11.6ZM96-.88A10.962,10.962,0,0,1,93.52.52a9.158,9.158,0,0,1-3.52.6q-3.84,0-5.56-1.64a8.708,8.708,0,0,1-2.36-4.6h-.16q-.32.72-.88,1.8a7.135,7.135,0,0,1-1.72,2.08A9.574,9.574,0,0,1,76.24.44a14.827,14.827,0,0,1-4.88.68A15.45,15.45,0,0,1,66,.36a8.744,8.744,0,0,1-3.12-1.88A5.454,5.454,0,0,1,61.4-4.04a10.483,10.483,0,0,1-.36-2.6,7.962,7.962,0,0,1,1.12-4.48,8.3,8.3,0,0,1,2.92-2.68,19.321,19.321,0,0,1,4-1.64q2.2-.64,4.44-1.36,2.64-.88,4.36-1.52a7.727,7.727,0,0,0,2.68-1.56,4.787,4.787,0,0,0,1.32-2.32,15.9,15.9,0,0,0,.36-3.8A22.212,22.212,0,0,0,82-29.44a7.291,7.291,0,0,0-.88-2.6,4.087,4.087,0,0,0-1.84-1.64,7.654,7.654,0,0,0-3.2-.56,9.187,9.187,0,0,0-4.36.92,3.147,3.147,0,0,0-1.72,3,14.951,14.951,0,0,0,.24,2.68,12.155,12.155,0,0,1,.24,1.96,2.489,2.489,0,0,1-.8,1.88,3.243,3.243,0,0,1-2.32.76q-2.64,0-3.28-.96a4.39,4.39,0,0,1-.64-2.48,7.418,7.418,0,0,1,.8-3.36,8.464,8.464,0,0,1,2.36-2.84,11.739,11.739,0,0,1,3.92-1.96,18.516,18.516,0,0,1,5.4-.72,17.852,17.852,0,0,1,6.16.92,10.654,10.654,0,0,1,4,2.48,9.008,9.008,0,0,1,2.16,3.52,13.189,13.189,0,0,1,.64,4.12V-4.4a4.847,4.847,0,0,0,.72,3.12,2.654,2.654,0,0,0,2.08.8A5.814,5.814,0,0,0,93.52-.8a6.753,6.753,0,0,0,1.84-.96ZM141.76,0H128.88V-8.08h-.16A29.45,29.45,0,0,1,127-4.84a13.073,13.073,0,0,1-2.48,2.96A12.545,12.545,0,0,1,121.08.28a11.61,11.61,0,0,1-4.6.84,15.641,15.641,0,0,1-5.2-.72,13.071,13.071,0,0,1-3.12-1.52,15.726,15.726,0,0,1-1.24-1,5.872,5.872,0,0,1-1.24-1.64,11.432,11.432,0,0,1-.96-2.68,17.349,17.349,0,0,1-.4-4.04V-33.2H98.16v-1.12H111.2V-9.76a24.5,24.5,0,0,0,.28,3.84,8.439,8.439,0,0,0,1.08,3.08,5.975,5.975,0,0,0,2.08,2.08A6.531,6.531,0,0,0,118,0a7.511,7.511,0,0,0,3.64-1.04A11.852,11.852,0,0,0,125.08-4a16.966,16.966,0,0,0,2.6-4.6,16.587,16.587,0,0,0,1.04-6.04V-33.2h-6.08v-1.12H135.6v33.2h6.16Zm3.28-34.32h6.16V-44.64q.64.24,1.2.4a7.907,7.907,0,0,0,1.92.16,6.888,6.888,0,0,0,2.08-.28,5.22,5.22,0,0,0,1.68-.92v10.96h11.36v1.12H158.08V-7.04a12.429,12.429,0,0,0,.44,3.64,5.5,5.5,0,0,0,1.16,2.16,3.471,3.471,0,0,0,1.56,1,5.955,5.955,0,0,0,1.64.24,5.624,5.624,0,0,0,4.52-2.04,9.879,9.879,0,0,0,2.2-4.68l1.12.4A18.615,18.615,0,0,1,170-4a8.091,8.091,0,0,1-1.48,2.44,7.776,7.776,0,0,1-2.6,1.92,9.307,9.307,0,0,1-4,.76q-6,0-8.36-2.32a8.784,8.784,0,0,1-2.36-6.56V-33.2h-6.16Zm32.72-18.64a4.087,4.087,0,0,1,1.24-3,4.087,4.087,0,0,1,3-1.24,4.087,4.087,0,0,1,3,1.24,4.087,4.087,0,0,1,1.24,3,4.087,4.087,0,0,1-1.24,3,4.087,4.087,0,0,1-3,1.24,4.087,4.087,0,0,1-3-1.24A4.087,4.087,0,0,1,177.76-52.96Zm-5.2,51.84h6.16V-33.2h-6.16v-1.12H185.6v33.2h6.16V0h-19.2Z" transform="translate(4 80)"/><path d="M19.28-31.12h7.36a13.975,13.975,0,0,0,4.08-.56,7.122,7.122,0,0,0,3.16-1.96,9.368,9.368,0,0,0,2.04-3.8,21.561,21.561,0,0,0,.72-6.08,17.214,17.214,0,0,0-1.08-6.68,9.026,9.026,0,0,0-2.8-3.8,9.209,9.209,0,0,0-3.84-1.68,22.613,22.613,0,0,0-4.2-.4q-1.44,0-2.92.04a20.561,20.561,0,0,0-2.52.2Zm0,30q.96.08,2.12.2t3.32.12a25.087,25.087,0,0,0,6.44-.72,9.259,9.259,0,0,0,4.4-2.52A10.835,10.835,0,0,0,38.08-8.8a29.083,29.083,0,0,0,.8-7.44q0-6.4-2.72-10.08T28.08-30h-8.8ZM2.4-1.12h8.88V-55.84H2.4v-1.12h14q1.2,0,2.44-.04t2.52-.12q1.28,0,2.48-.04t2.32-.04a27.88,27.88,0,0,1,9.6,1.4,17.338,17.338,0,0,1,5.92,3.44,10.9,10.9,0,0,1,2.96,4.4,13.465,13.465,0,0,1,.8,4.28,10.454,10.454,0,0,1-1.16,4.88,13,13,0,0,1-3.12,3.92,16.325,16.325,0,0,1-4.52,2.72,20.294,20.294,0,0,1-5.36,1.36v.16a25.194,25.194,0,0,1,5.88,1.24,19.463,19.463,0,0,1,5.44,2.8,14.363,14.363,0,0,1,3.96,4.44,11.966,11.966,0,0,1,1.52,6.08,15.8,15.8,0,0,1-1.36,6.6,13.822,13.822,0,0,1-4.08,5.16,20.249,20.249,0,0,1-6.88,3.4A34,34,0,0,1,26.08.32q-1.12,0-2.2-.04T21.6.16Q20.4.08,19.12.04T16.4,0H2.4ZM98.88,0H86V-8.08h-.16a29.45,29.45,0,0,1-1.72,3.24,13.073,13.073,0,0,1-2.48,2.96A12.545,12.545,0,0,1,78.2.28a11.61,11.61,0,0,1-4.6.84A15.641,15.641,0,0,1,68.4.4a13.071,13.071,0,0,1-3.12-1.52,15.726,15.726,0,0,1-1.24-1A5.872,5.872,0,0,1,62.8-3.76a11.432,11.432,0,0,1-.96-2.68,17.349,17.349,0,0,1-.4-4.04V-33.2H55.28v-1.12H68.32V-9.76a24.5,24.5,0,0,0,.28,3.84,8.439,8.439,0,0,0,1.08,3.08A5.975,5.975,0,0,0,71.76-.76,6.531,6.531,0,0,0,75.12,0a7.511,7.511,0,0,0,3.64-1.04A11.852,11.852,0,0,0,82.2-4a16.966,16.966,0,0,0,2.6-4.6,16.587,16.587,0,0,0,1.04-6.04V-33.2H79.76v-1.12H92.72v33.2h6.16ZM112.4-17.12a37.056,37.056,0,0,0,.88,9.04,13.9,13.9,0,0,0,2.32,5.16,6.683,6.683,0,0,0,3.36,2.36,14.5,14.5,0,0,0,4.08.56,14.5,14.5,0,0,0,4.08-.56,6.683,6.683,0,0,0,3.36-2.36,13.9,13.9,0,0,0,2.32-5.16,37.056,37.056,0,0,0,.88-9.04,42.423,42.423,0,0,0-.64-8.04,15.072,15.072,0,0,0-1.96-5.28,7.563,7.563,0,0,0-3.32-2.92,11.648,11.648,0,0,0-4.72-.88,11.648,11.648,0,0,0-4.72.88A7.563,7.563,0,0,0,115-30.44a15.072,15.072,0,0,0-1.96,5.28A42.423,42.423,0,0,0,112.4-17.12Zm-8,0a15.744,15.744,0,0,1,1.72-7.28,20.226,20.226,0,0,1,4.4-5.8,20.255,20.255,0,0,1,6-3.8,17.121,17.121,0,0,1,6.52-1.36A17.121,17.121,0,0,1,129.56-34a20.255,20.255,0,0,1,6,3.8,20.226,20.226,0,0,1,4.4,5.8,15.744,15.744,0,0,1,1.72,7.28,16.1,16.1,0,0,1-1.6,7.08,19.845,19.845,0,0,1-4.2,5.8,19.938,19.938,0,0,1-5.96,3.92,17.308,17.308,0,0,1-6.88,1.44,17.308,17.308,0,0,1-6.88-1.44,19.938,19.938,0,0,1-5.96-3.92,19.846,19.846,0,0,1-4.2-5.8A16.1,16.1,0,0,1,104.4-17.12Zm39.28-17.2h19.6v1.12h-6.72L166.88-8.08l10.8-25.12h-6.64v-1.12h12.24v1.12h-4.32L165.76-2.32q-1.52,3.44-2.88,6.92t-2.72,7a51.861,51.861,0,0,1-2.24,5.04,16.458,16.458,0,0,1-2.36,3.52,8.636,8.636,0,0,1-2.68,2.04,7.792,7.792,0,0,1-3.36.68,8.171,8.171,0,0,1-3.72-.72,6.95,6.95,0,0,1-2.2-1.68,4.819,4.819,0,0,1-1.04-2,8.055,8.055,0,0,1-.24-1.76,3.816,3.816,0,0,1,1.12-3,3.94,3.94,0,0,1,2.72-1,6.53,6.53,0,0,1,1.2.12,3.82,3.82,0,0,1,1.2.44,3.01,3.01,0,0,1,.96.88,2.278,2.278,0,0,1,.4,1.36,3.707,3.707,0,0,1-.68,2.12,3.829,3.829,0,0,0-.68,2.2,1.437,1.437,0,0,0,.56,1.36,3.067,3.067,0,0,0,1.52.32,4.779,4.779,0,0,0,2.36-.6,7.146,7.146,0,0,0,2.12-1.96,19.956,19.956,0,0,0,2.08-3.56q1.04-2.2,2.32-5.4l3.52-8.96L149.2-33.2h-5.52Z" transform="translate(198 80)" fill="#707070"/></g></svg>