<svg xmlns="http://www.w3.org/2000/svg" xmlns:xlink="http://www.w3.org/1999/xlink" width="322" height="109" viewBox="0 0 322 109"><defs><clipPath id="b"><rect width="322" height="109"/></clipPath></defs><g id="a" clip-path="url(#b)"><path d="M72.08-54.32a7.32,7.32,0,0,0-2.56-5.28q-3.68-3.52-10.16-3.52A37.363,37.363,0,0,0,46.8-60.64a19.775,19.775,0,0,0-6.24,3.52q-4.08,3.52-4.08,7.04,0,4.72,6,8.48,2.24,1.36,9,4.44a97.892,97.892,0,0,1,9.88,5A17.628,17.628,0,0,1,67.88-26a12.773,12.773,0,0,1,1.8,6.08,15.2,15.2,0,0,1-2.64,8.16,39.447,39.447,0,0,1-13.6,12.8Q43.12,7.28,28.56,7.28q-14,0-22.24-7.12a17.535,17.535,0,0,1-6.4-14q0-5.44,3.96-12a22.908,22.908,0,0,1,9.72-9.28,3.136,3.136,0,0,1,1.8-.32q.6.16-1,1.52a24.233,24.233,0,0,0-5.52,6A27.921,27.921,0,0,0,4.4-12.64,15.5,15.5,0,0,0,7.44-3.12q5.44,7.28,18.88,8.24,1.52.16,4.52.16A42.305,42.305,0,0,0,39,4.2,39.038,39.038,0,0,0,48.96.64Q59.28-4.8,62.32-13.44a14.09,14.09,0,0,0,.96-4.96q0-5.44-4.88-9.6-2.64-2.08-10.76-5.56a81.918,81.918,0,0,1-10.92-5.32q-6.16-4.16-6.16-9.84,0-4.96,5.52-9.68,7.92-6.72,22.4-6.72a25.859,25.859,0,0,1,11.08,2.04,8.9,8.9,0,0,1,5.24,6.12,8.14,8.14,0,0,1,.16,1.6,7.282,7.282,0,0,1-2.88,5.6,15.211,15.211,0,0,1-5.36,2.56q-1.44.4-1.6-.32-.16-1.04,2-1.28,3.84-.48,4.72-3.84A6.385,6.385,0,0,0,72.08-54.32Zm28.88,32.64a30.607,30.607,0,0,0-4.08,6.52,33.589,33.589,0,0,0-3.16,7.6,21.165,21.165,0,0,0-.52,4.08q0,1.56,1.2,1.56,1.52,0,3.76-2.8a56.905,56.905,0,0,0,6.48-10.64q.32-.72.72-.8.64-.24.64.48a2.519,2.519,0,0,1-.24.96Q98.4.16,93.36.16A4.323,4.323,0,0,1,89.6-2.08a6.183,6.183,0,0,1-.72-3.2,18.786,18.786,0,0,1,.8-4.88Q83.28.16,78.64.16a3.712,3.712,0,0,1-2.32-.8q-2.4-1.68-2.4-5.76,0-7.84,6.8-15.92a17.66,17.66,0,0,1,9.44-5.84,11.329,11.329,0,0,1,2.88-.4A8.491,8.491,0,0,1,99.28-26a1.564,1.564,0,0,1,.48,1.68,1.1,1.1,0,0,1-1.36.64,3.687,3.687,0,0,0-3.84-2.88q-3.44,0-8.48,5.44a43.761,43.761,0,0,0-5.36,7.52Q77.6-8.4,77.6-5.28t2,3.12q4.8,0,12.56-14.72a18.409,18.409,0,0,1,2.56-4.04A3.508,3.508,0,0,1,97.36-22a13.421,13.421,0,0,1,1.64.24A5.06,5.06,0,0,0,100.96-21.68Zm27.84-4.56q-9.84,17.28-9.84,22.56,0,2.08,1.52,2.08,4.08,0,10.96-13.84.48-1.12.96-.88a.721.721,0,0,1,.48.64,2.025,2.025,0,0,1-.32.96q-4.24,8.56-7.16,11.8T119.56.32a5.027,5.027,0,0,1-4.44-2.24,4.549,4.549,0,0,1-.8-2.84,15.052,15.052,0,0,1,.8-4.36,43.181,43.181,0,0,1,4.4-8.32,4.859,4.859,0,0,0,.88-2.28q0-.84-1.36-.84t-5.2,3.6q-5.76,5.28-11.12,15.84a2.118,2.118,0,0,1-1.08,1,10.442,10.442,0,0,1-2.36.28,5.984,5.984,0,0,0-2.32.4Q98.24-2,102-9.92q6.72-14,8.8-16a3.568,3.568,0,0,1,2.64-.96,13.421,13.421,0,0,1,1.64.24,5.06,5.06,0,0,0,1.96.08q-2.96,1.6-9.68,15.04a64.92,64.92,0,0,1,6.84-7.4,39.192,39.192,0,0,1,7.4-5.12q4.32-2.36,6.32-2.36A2.349,2.349,0,0,1,128.8-26.24Zm6.4,2.8a2.883,2.883,0,0,0,.24-1.28,3.735,3.735,0,0,0-1.04-2.08l4.4-.08q1.84,0,2.16.68t-.48,2.12l-6.4,14.96q-2,4.72-4.96,10.56,3.12-1.2,4.56-1.84a16.222,16.222,0,0,0,3.48-2.32,18.053,18.053,0,0,0,3.52-3.88q1.48-2.2,5-8.84.56-1.12,1-.88a.719.719,0,0,1,.44.64,15.156,15.156,0,0,1-1.32,3.08q-1.32,2.68-2.68,5a29.22,29.22,0,0,1-3.52,4.72A18.127,18.127,0,0,1,134.8.96,52.807,52.807,0,0,1,127.76,4q-6.16,11.2-12.48,16.48a22.759,22.759,0,0,1-5.68,3.4,17.25,17.25,0,0,1-6.84,1.4,8.819,8.819,0,0,1-5.48-1.48,4.381,4.381,0,0,1-1.92-3.56,11.614,11.614,0,0,1,1.2-4.72q2.08-4.08,7.52-6.56a58.657,58.657,0,0,1,10.8-3.56q6.72-1.64,8.64-2.2,2-3.44,2.36-4.2t5.8-11.96q-1.28,0-.72-1.28ZM98.08,17.36a7.26,7.26,0,0,0-.88,3.2,2.7,2.7,0,0,0,1.12,2.28,4.4,4.4,0,0,0,2.72.84q4.64,0,10-4.8A49.961,49.961,0,0,0,122,5.76q-13.28,3.52-16.56,4.96A13.931,13.931,0,0,0,98.08,17.36Zm44.4-48.48a3.722,3.722,0,0,1-2.48.96,2.533,2.533,0,0,1-2.08-.88,2.59,2.59,0,0,1-.72-1.52,9.8,9.8,0,0,1,.12-1.44,3.2,3.2,0,0,1,1.24-1.76,3.722,3.722,0,0,1,2.48-.96,2.713,2.713,0,0,1,2.12.84,2.385,2.385,0,0,1,.76,1.48,8.028,8.028,0,0,1-.16,1.48A3.44,3.44,0,0,1,142.48-31.12Zm6.64,18.8A15.832,15.832,0,0,0,148-6.24a5.757,5.757,0,0,0,1,3.56,3.353,3.353,0,0,0,2.84,1.32q7.28,0,13.2-13.68.56-1.28,1.36-1.12a.378.378,0,0,1,.32.4,33.6,33.6,0,0,1-1.8,4.2,33.757,33.757,0,0,1-3.64,6.28Q157.2.32,151.2.32a7.7,7.7,0,0,1-5.44-2.08,7.372,7.372,0,0,1-2.24-5.68,19.538,19.538,0,0,1,1.72-7.64,29.251,29.251,0,0,1,4.68-7.52,17.964,17.964,0,0,1,6.8-5.08,8.824,8.824,0,0,1,3.52-.8,5.515,5.515,0,0,1,3.12.96,3.205,3.205,0,0,1,1.36,2.48q0,4.8-5.76,9.2A17.147,17.147,0,0,1,154-13.4,16.792,16.792,0,0,1,149.12-12.32Zm13.44-12.8q0-1.6-1.28-1.6-2.24,0-6.8,5.52a41.138,41.138,0,0,0-4.8,7.52,12.64,12.64,0,0,0,3.96-.96,15.227,15.227,0,0,0,4.52-2.56Q162.56-20.96,162.56-25.12Zm6.24,12.8a15.832,15.832,0,0,0-1.12,6.08,5.757,5.757,0,0,0,1,3.56,3.353,3.353,0,0,0,2.84,1.32q7.28,0,13.2-13.68.56-1.28,1.36-1.12a.378.378,0,0,1,.32.4,33.6,33.6,0,0,1-1.8,4.2,33.757,33.757,0,0,1-3.64,6.28Q176.88.32,170.88.32a7.7,7.7,0,0,1-5.44-2.08,7.372,7.372,0,0,1-2.24-5.68,19.538,19.538,0,0,1,1.72-7.64,29.251,29.251,0,0,1,4.68-7.52,17.964,17.964,0,0,1,6.8-5.08,8.824,8.824,0,0,1,3.52-.8,5.515,5.515,0,0,1,3.12.96,3.205,3.205,0,0,1,1.36,2.48q0,4.8-5.76,9.2a17.147,17.147,0,0,1-4.96,2.44A16.792,16.792,0,0,1,168.8-12.32Zm13.44-12.8q0-1.6-1.28-1.6-2.24,0-6.8,5.52a41.138,41.138,0,0,0-4.8,7.52,12.64,12.64,0,0,0,3.96-.96,15.227,15.227,0,0,0,4.52-2.56Q182.24-20.96,182.24-25.12Zm24-2.8-.4,1.44q-4.08,12.72-7.52,18.56Q193.28.56,187.76.56q-4.48,0-4.48-4.32,0-3.28,2.4-10.16-.8,1.28-1.24.84a.943.943,0,0,1-.2-1.08l1.44-2.72a14.139,14.139,0,0,0,1.52-6.24q0-3.12-1.28-3.68a47.227,47.227,0,0,1,5.6-.76.978.978,0,0,1,1,.68,4.819,4.819,0,0,1,.2,1.44,33.3,33.3,0,0,1-2.52,11.52Q187.68-7.28,187.68-5t.72,2.64a3.2,3.2,0,0,0,1.44.36q2.08,0,4.72-3.36a41.527,41.527,0,0,0,5.28-9.92,11.524,11.524,0,0,1-1.12-4.52,11.556,11.556,0,0,1,.48-3.48q1.44-4.56,4.56-5.68a3.428,3.428,0,0,1,1.2-.24A1.131,1.131,0,0,1,206.24-27.92Z" transform="translate(33.74 74.42)"/><path d="M19.28-18.4q2.8-3.36,2.8-5.68T20.16-26.4q-3.76,0-8.56,6.88a29.17,29.17,0,0,0-2.96,5.68A17.014,17.014,0,0,0,7.2-7.48a8.225,8.225,0,0,0,1.16,4.6,4.007,4.007,0,0,0,3.6,1.76,9.127,9.127,0,0,0,4.52-1.16,12.98,12.98,0,0,0,3.96-3.68,43.486,43.486,0,0,0,2.84-4.2q.96-1.68,2.64-5.04.56-1.12.96-.92a.616.616,0,0,1,.4.56,12.777,12.777,0,0,1-1.08,2.64q-1.08,2.28-2.16,4.28a30.242,30.242,0,0,1-3.08,4.48A11.943,11.943,0,0,1,11.12.32q-4.48,0-6.44-2.2A7.409,7.409,0,0,1,2.72-6.96a20.242,20.242,0,0,1,1.72-7.68,33.975,33.975,0,0,1,3.96-7.2q4.64-6.32,10.72-6.32a5.66,5.66,0,0,1,4.28,1.4,4.581,4.581,0,0,1,1.32,3.24,5.905,5.905,0,0,1-2.24,4.64,3.122,3.122,0,0,1-1.88,1.04A1.806,1.806,0,0,1,19.28-18.4Zm30.24-7.84Q39.68-8.96,39.68-3.68q0,2.08,1.52,2.08,4.08,0,10.96-13.84.48-1.12.96-.88a.721.721,0,0,1,.48.64,2.025,2.025,0,0,1-.32.96q-4.24,8.56-7.16,11.8T40.28.32a5.027,5.027,0,0,1-4.44-2.24,4.549,4.549,0,0,1-.8-2.84,15.052,15.052,0,0,1,.8-4.36,43.182,43.182,0,0,1,4.4-8.32,4.859,4.859,0,0,0,.88-2.28q0-.84-1.36-.84t-5.2,3.6Q28.8-11.68,23.44-1.12a2.118,2.118,0,0,1-1.08,1A10.442,10.442,0,0,1,20,.16a5.984,5.984,0,0,0-2.32.4Q18.96-2,22.72-9.92q6.72-14,8.8-16a3.568,3.568,0,0,1,2.64-.96,13.421,13.421,0,0,1,1.64.24,5.06,5.06,0,0,0,1.96.08q-2.96,1.6-9.68,15.04a64.919,64.919,0,0,1,6.84-7.4,39.192,39.192,0,0,1,7.4-5.12q4.32-2.36,6.32-2.36A2.349,2.349,0,0,1,49.52-26.24Z" transform="translate(234.74 74.42)" fill="#707070"/></g></svg>